<svg xmlns="http://www.w3.org/2000/svg" width="1600" height="600" viewBox="0 0 1600 600">
  <defs>
    <linearGradient id="bg" x1="0" y1="0" x2="1" y2="1">
      <stop offset="0" stop-color="#dbeafe"/>
      <stop offset="0.45" stop-color="#d1fae5"/>
      <stop offset="1" stop-color="#fef3c7"/>
    </linearGradient>
    <linearGradient id="stripe" x1="0" y1="0" x2="1" y2="0">
      <stop offset="0" stop-color="#3b82f6" stop-opacity="0.18"/>
      <stop offset="0.5" stop-color="#22c55e" stop-opacity="0.18"/>
      <stop offset="1" stop-color="#f59e0b" stop-opacity="0.16"/>
    </linearGradient>
    <filter id="blur" x="-50%" y="-50%" width="200%" height="200%">
      <feGaussianBlur stdDeviation="40"/>
    </filter>
  </defs>

  <rect width="1600" height="600" fill="url(#bg)"/>

  <g opacity="0.9">
    <circle cx="230" cy="140" r="140" fill="#22c55e" filter="url(#blur)" opacity="0.22"/>
    <circle cx="1450" cy="120" r="160" fill="#38bdf8" filter="url(#blur)" opacity="0.22"/>
    <circle cx="980" cy="560" r="190" fill="#f97316" filter="url(#blur)" opacity="0.18"/>
  </g>

  <g opacity="0.85">
    <path d="M0 420 C 260 340, 520 520, 800 440 C 1080 360, 1320 520, 1600 420 L 1600 600 L 0 600 Z" fill="url(#stripe)"/>
  </g>

  <g fill="none" stroke="#0f172a" stroke-opacity="0.10">
    <path d="M120 110 L 380 110 L 380 260 L 120 260 Z" />
    <path d="M420 170 L 680 170 L 680 320 L 420 320 Z" />
    <path d="M720 120 L 980 120 L 980 270 L 720 270 Z" />
    <path d="M1020 190 L 1280 190 L 1280 340 L 1020 340 Z" />
  </g>

  <g transform="translate(72,86)">
    <rect x="0" y="0" width="92" height="92" rx="26" fill="#0ea5a4" opacity="0.92"/>
    <text x="46" y="60" text-anchor="middle" font-size="44" font-family="ui-sans-serif, system-ui, -apple-system, Segoe UI, Arial" fill="#ffffff" font-weight="800">EL</text>
  </g>

  <g transform="translate(190,104)">
    <text x="0" y="0" font-size="38" font-family="ui-sans-serif, system-ui, -apple-system, Segoe UI, Arial" fill="#0f172a" font-weight="900" opacity="0.92">应急普法课程</text>
    <text x="0" y="40" font-size="18" font-family="ui-sans-serif, system-ui, -apple-system, Segoe UI, Arial" fill="#334155" font-weight="600" opacity="0.75">默认封面 · 可在管理端自定义</text>
  </g>
</svg>

